<?xml version="1.0" encoding="UTF-8" standalone="no"?>
<svg
   xmlns:dc="http://purl.org/dc/elements/1.1/"
   xmlns:cc="http://creativecommons.org/ns#"
   xmlns:rdf="http://www.w3.org/1999/02/22-rdf-syntax-ns#"
   xmlns:svg="http://www.w3.org/2000/svg"
   xmlns="http://www.w3.org/2000/svg"
   viewBox="0 0 1600 1600"
   height="1600"
   width="1600"
   xml:space="preserve"
   version="1.1"
   id="svg2"><metadata
     id="metadata8"><rdf:RDF><cc:Work
         rdf:about=""><dc:format>image/svg+xml</dc:format><dc:type
           rdf:resource="http://purl.org/dc/dcmitype/StillImage" /></cc:Work></rdf:RDF></metadata><defs
     id="defs6"><clipPath
       id="clipPath16"
       clipPathUnits="userSpaceOnUse"><path
         id="path18"
         d="m 0,1280 1280,0 L 1280,0 0,0 0,1280 Z" /></clipPath></defs><g
     transform="matrix(1.25,0,0,-1.25,0,1600)"
     id="g10"><g
       id="g12"><g
         clip-path="url(#clipPath16)"
         id="g14"><path
           id="path20"
           style="fill:#206fab;fill-opacity:1;fill-rule:nonzero;stroke:none"
           d="m -0.639,-0.32 1280.639,0 0,1280.32 -1280.639,0 0,-1280.32 z m 810.402,368.099 c 0,21.801 3.373,42.38 10.069,61.101 6.648,18.673 16.033,35.073 27.863,48.735 11.78,13.614 26.078,24.466 42.38,32.213 16.253,7.723 34.485,11.634 54.233,11.634 19.48,0 36.686,-2.909 51.179,-8.652 13.565,-5.426 26.86,-13.345 39.569,-23.512 l -18.966,-25.272 c -9.385,7.455 -19.503,14.005 -30.086,19.528 -12.025,6.208 -26.347,9.361 -42.575,9.361 -13.614,0 -26.616,-3.153 -38.641,-9.361 -11.927,-6.208 -22.461,-15.079 -31.357,-26.371 -8.872,-11.219 -15.887,-24.661 -20.946,-39.985 -5.059,-15.299 -7.601,-32.36 -7.601,-50.714 0,-18.697 2.542,-36.002 7.601,-51.423 5.059,-15.496 12.196,-28.889 21.215,-39.863 9.042,-10.998 19.87,-19.699 32.212,-25.858 12.392,-6.208 26.029,-9.36 40.572,-9.36 13.613,0 25.76,2.468 36.123,7.356 10.167,4.79 17.964,9.556 23.17,14.127 l 1.295,1.148 0,86.3 -71.171,0 0,27.227 101.893,0 0,-128.02 c -4.571,-4.179 -9.728,-8.31 -15.373,-12.269 -6.184,-4.351 -13.296,-8.261 -21.142,-11.609 -7.821,-3.349 -16.57,-6.135 -25.955,-8.286 -9.288,-2.126 -19.431,-3.177 -30.16,-3.177 -20.335,0 -39.032,3.691 -55.627,10.998 -16.522,7.283 -30.942,17.817 -42.747,31.308 -11.829,13.516 -21.043,29.965 -27.373,48.882 -6.428,18.99 -9.654,40.449 -9.654,63.814 m -240.08,149.332 98.325,0 c 13.515,0 26.689,-1.808 39.104,-5.328 12.245,-3.446 23.292,-8.823 32.8,-15.96 9.36,-7.038 16.913,-16.13 22.436,-27.031 5.524,-10.876 8.334,-24.001 8.334,-39.056 0,-11.365 -1.833,-21.752 -5.425,-30.892 -3.593,-9.117 -8.481,-17.085 -14.543,-23.684 -6.085,-6.623 -13.369,-12.244 -21.678,-16.668 -8.359,-4.473 -17.451,-7.87 -26.983,-10.118 l -5.303,-1.248 83.391,-129.999 -38.885,0 -78.968,125.234 -60.539,0 0,-125.234 -32.066,0 0,299.984 z m -30.844,549.303 61.101,0 70.854,-334.837 97.542,317.998 48.002,0 92.483,-317.998 c 4.57,16.62 74.617,334.837 74.617,334.837 l 58.633,0 -107.392,-440.762 -49.248,0 -94.047,329.484 -104.02,-329.484 -48.637,0 -99.888,440.762 z M 256.306,367.779 c 0,23.048 3.226,44.36 9.605,63.35 6.354,18.893 15.348,35.268 26.811,48.686 11.365,13.32 25.149,23.805 41.011,31.088 15.838,7.308 33.606,10.998 52.719,10.998 18.819,0 36.343,-3.69 52.083,-10.998 15.69,-7.283 29.451,-17.768 40.815,-31.088 11.365,-13.344 20.311,-29.598 26.567,-48.246 6.233,-18.721 9.386,-39.911 9.386,-62.935 0,-23.095 -3.031,-44.408 -8.995,-63.447 -5.914,-18.917 -14.566,-35.512 -25.711,-49.346 -11.047,-13.736 -24.71,-24.538 -40.596,-32.115 -15.837,-7.576 -34.021,-11.438 -53.989,-11.438 -20.848,0 -39.521,3.862 -55.529,11.438 -16.009,7.602 -29.647,18.331 -40.572,31.895 -10.949,13.614 -19.381,30.111 -25.051,49.077 -5.67,18.99 -8.554,40.205 -8.554,63.081 m -7.479,294.656 24.269,44.897 c 13.736,-10.827 27.569,-19.454 41.5,-25.882 13.932,-6.428 28.767,-9.679 44.58,-9.679 22.045,0 38.861,8.017 50.519,24.026 11.634,15.959 17.475,37.687 17.475,65.133 l 0,305.459 56.726,0 0,-304.212 c 0,-42.82 -9.751,-76.988 -29.304,-102.553 -19.552,-25.564 -50.128,-38.347 -91.677,-38.347 -25.784,0 -47.488,3.935 -65.134,11.829 -17.695,7.895 -33.997,17.671 -48.954,29.329 m -61.028,-397.893 46.193,0 0,-46.168 -46.193,0 0,46.168 z m 108.98,153.609 c -4.448,-15.104 -6.697,-31.919 -6.697,-49.957 0,-18.672 2.322,-36.001 6.942,-51.496 4.57,-15.617 11.169,-29.231 19.577,-40.474 8.456,-11.34 18.721,-20.31 30.501,-26.615 11.83,-6.379 25.052,-9.629 39.35,-9.629 13.687,0 26.591,3.176 38.274,9.409 11.658,6.232 21.85,15.104 30.282,26.42 8.358,11.194 15.055,24.783 19.797,40.425 4.765,15.593 7.161,32.921 7.161,51.545 0,17.989 -2.322,34.804 -6.917,49.981 -4.644,15.226 -11.194,28.596 -19.382,39.765 -8.26,11.291 -18.452,20.261 -30.281,26.641 -11.854,6.378 -25.125,9.604 -39.374,9.604 -14.249,0 -27.471,-3.226 -39.35,-9.604 -11.78,-6.355 -22.021,-15.203 -30.501,-26.372 -8.384,-11.12 -14.909,-24.441 -19.382,-39.643 m 419.694,54.894 c -12.953,10.558 -30.013,15.911 -50.665,15.911 l -64.059,0 0,-118.904 60.588,0 c 22.901,0 41.109,5.035 54.063,14.958 13.295,10.143 20.041,24.758 20.041,43.431 0,18.868 -6.721,33.874 -19.968,44.604" /></g></g></g></svg>